name GIL06_fast3.mot
datacolumns 153
datarows 4
range 0.35000002 0.37500003
endheader

                time	           pelvis_tx	           pelvis_ty	           pelvis_tz	         pelvis_tilt	         pelvis_list	     pelvis_rotation	       hip_flexion_r	     hip_adduction_r	      hip_rotation_r	        knee_angle_r	       ankle_angle_r	    subtalar_angle_r	         mtp_angle_r	       hip_flexion_l	     hip_adduction_l	      hip_rotation_l	        knee_angle_l	       ankle_angle_l	    subtalar_angle_l	         mtp_angle_l	    lumbar_extension	      lumbar_bending	     lumbar_rotation	     ground_force_vx	     ground_force_vy	     ground_force_vz	     ground_force_px	     ground_force_py	     ground_force_pz	     ground_force_vx	     ground_force_vy	     ground_force_vz	     ground_force_px	     ground_force_py	     ground_force_pz	     ground_torque_x	     ground_torque_y	     ground_torque_z	     ground_torque_x	     ground_torque_y	     ground_torque_z	    ground_marker_px	    ground_marker_py	    ground_marker_pz	    ground_marker_px	    ground_marker_py	    ground_marker_pz	    ground_marker_px	    ground_marker_py	    ground_marker_pz	    ground_marker_px	    ground_marker_py	    ground_marker_pz	    ground_marker_px	    ground_marker_py	    ground_marker_pz	    ground_marker_px	    ground_marker_py	    ground_marker_pz	    ground_marker_px	    ground_marker_py	    ground_marker_pz	    ground_marker_px	    ground_marker_py	    ground_marker_pz	    ground_marker_px	    ground_marker_py	    ground_marker_pz	    ground_marker_px	    ground_marker_py	    ground_marker_pz	    ground_marker_px	    ground_marker_py	    ground_marker_pz	    ground_marker_px	    ground_marker_py	    ground_marker_pz	    ground_marker_px	    ground_marker_py	    ground_marker_pz	    ground_marker_px	    ground_marker_py	    ground_marker_pz	    ground_marker_px	    ground_marker_py	    ground_marker_pz	    ground_marker_px	    ground_marker_py	    ground_marker_pz	    ground_marker_px	    ground_marker_py	    ground_marker_pz	    ground_marker_px	    ground_marker_py	    ground_marker_pz	    ground_marker_px	    ground_marker_py	    ground_marker_pz	    ground_marker_px	    ground_marker_py	    ground_marker_pz	    ground_marker_px	    ground_marker_py	    ground_marker_pz	    ground_marker_px	    ground_marker_py	    ground_marker_pz	    ground_marker_px	    ground_marker_py	    ground_marker_pz	    ground_marker_px	    ground_marker_py	    ground_marker_pz	    ground_marker_px	    ground_marker_py	    ground_marker_pz	    ground_marker_px	    ground_marker_py	    ground_marker_pz	    ground_marker_px	    ground_marker_py	    ground_marker_pz	    ground_marker_px	    ground_marker_py	    ground_marker_pz	    ground_marker_px	    ground_marker_py	    ground_marker_pz	    ground_marker_px	    ground_marker_py	    ground_marker_pz	    ground_marker_px	    ground_marker_py	    ground_marker_pz	    ground_marker_px	    ground_marker_py	    ground_marker_pz	    ground_marker_px	    ground_marker_py	    ground_marker_pz	    ground_marker_px	    ground_marker_py	    ground_marker_pz	    ground_marker_px	    ground_marker_py	    ground_marker_pz	    ground_marker_px	    ground_marker_py	    ground_marker_pz	    ground_marker_px	    ground_marker_py	    ground_marker_pz	
          0.35000002	          0.36369169	          0.85146296	         -0.27979261	         -3.53064251	          0.38970619	         -0.19339663	         33.02419281	         -2.82140374	          3.89510465	        -45.36538315	          4.63439369	          0.00000000	          0.00000000	         -1.53425789	          4.84678602	         -3.57784128	         -5.06173325	          6.37687922	          0.00000000	          0.00000000	         -6.35115576	         -0.80678833	         -1.04924667	          0.00000000	          0.00000000	          0.00000000	          0.72982623	          0.00000000	         -0.22313940	          4.13174735	        644.22700229	         15.15099442	          0.22636317	          0.00000000	         -0.32542023	          0.00000000	          0.00000000	          0.00000000	          0.00000000	         -5.61823926	          0.00000000	          0.25528142	          0.77525365	         -0.28220665	          0.23634045	          0.77744269	         -0.20304009	          0.23713000	          0.77832192	         -0.35866472	          0.43584681	          0.42442942	         -0.18404052	          0.20546347	          0.42258555	         -0.33056548	          0.33969510	          0.08963275	         -0.20330878	          0.14032842	          0.06103738	         -0.30684307	          0.36369169	          0.85146296	         -0.27979261	          0.36307573	          0.85077709	         -0.15838611	          0.36430764	          0.85214889	         -0.40119910	          0.12391331	          0.91722530	         -0.24656877	          0.12099545	          0.91969818	         -0.30133054	          0.43798417	          0.42947423	         -0.11275074	          0.20084749	          0.41737553	         -0.40172586	          0.45358676	          0.42377016	         -0.25698000	          0.19853164	          0.41562653	         -0.24591850	          0.32451475	          0.09196063	         -0.16800456	          0.12416443	          0.06158490	         -0.34288022	          0.35707214	          0.09172231	         -0.23639357	          0.13838370	          0.07890369	         -0.26613075	          0.16536012	          1.34588468	         -0.28901693	          0.29391024	          1.28297913	         -0.24593271	          0.29565632	          1.28203535	         -0.32978338	          0.27860859	          1.27649271	         -0.30048656	          0.33193099	          1.20418000	         -0.29717299	          0.50263232	          0.64376640	         -0.11740217	          0.40115878	          0.57397884	         -0.35847881	          0.45943704	          0.64266402	         -0.13721734	          0.35435119	          0.59372938	         -0.36711353	          0.48164219	          0.56849986	         -0.14296368	          0.32921267	          0.52668089	         -0.35690755	          0.45191565	          0.20708473	         -0.15556987	          0.13782644	          0.16021036	         -0.41644931	          0.41278198	          0.22067741	         -0.17671594	          0.14118230	          0.17555261	         -0.37022811	          0.43198013	          0.05972244	         -0.18624276	          0.23922612	          0.04526149	         -0.32365653	
          0.35833335	          0.37447667	          0.84987760	         -0.28014705	         -3.59363556	          0.16992638	          0.16569406	         33.48655319	         -2.59585238	          3.95360470	        -42.21186829	          4.32744074	          0.00000000	          0.00000000	         -2.41362095	          4.74948502	         -3.17112494	         -4.80777311	          6.83101225	          0.00000000	          0.00000000	         -6.28243303	         -0.57840019	         -1.92557120	          0.00000000	          0.00000000	          0.00000000	          0.73258698	          0.00000000	         -0.22281265	          8.56061534	        667.41549535	         12.75855736	          0.22980910	          0.00000000	         -0.32426608	          0.00000000	          0.00000000	          0.00000000	          0.00000000	         -6.34825195	          0.00000000	          0.26596272	          0.77377307	         -0.28166831	          0.24759255	          0.77614880	         -0.20234747	          0.24728313	          0.77671438	         -0.35797524	          0.44948986	          0.42493859	         -0.18566194	          0.21002550	          0.42199466	         -0.32956433	          0.37396306	          0.08473475	         -0.20271307	          0.14076693	          0.06140635	         -0.30617008	          0.37447667	          0.84987760	         -0.28014705	          0.37471843	          0.84943581	         -0.15856673	          0.37423494	          0.85031945	         -0.40172735	          0.13496603	          0.91592604	         -0.24528597	          0.13169746	          0.91838312	         -0.30003992	          0.45229545	          0.42993733	         -0.11439209	          0.20533189	          0.41678852	         -0.40071991	          0.46434909	          0.42378688	         -0.25856060	          0.20687883	          0.41201749	         -0.24441056	          0.35847691	          0.08640809	         -0.16750471	          0.12452181	          0.06219120	         -0.34216633	          0.39172348	          0.08776952	         -0.23570712	          0.13956678	          0.07906702	         -0.26544303	          0.17613076	          1.34456849	         -0.28910026	          0.30468124	          1.28156817	         -0.24597956	          0.30715913	          1.28057313	         -0.32993922	          0.28974894	          1.27504504	         -0.30038226	          0.34317741	          1.20275235	         -0.29690424	          0.51521790	          0.64396465	         -0.11968556	          0.40819469	          0.57086885	         -0.35766444	          0.47159457	          0.64251405	         -0.13857111	          0.36089289	          0.59100837	         -0.36583441	          0.49411374	          0.56849819	         -0.14495426	          0.33637834	          0.52454072	         -0.35588905	          0.47874656	          0.20909141	         -0.15526779	          0.13914178	          0.16074790	         -0.41570154	          0.43957016	          0.22026154	         -0.17644082	          0.14302602	          0.17584294	         -0.36936089	          0.46770716	          0.06012563	         -0.18511990	          0.23939393	          0.04529390	         -0.32328847	
          0.36666667	          0.38543552	          0.84805465	         -0.28040588	         -3.69696522	         -0.00943338	          0.53152102	         33.93023300	         -2.40326381	          4.01246595	        -39.03497314	          3.93605995	          0.00000000	          0.00000000	         -3.25188446	          4.66102982	         -2.68146420	         -4.56291676	          7.27008677	          0.00000000	          0.00000000	         -6.31307888	          0.17070659	         -2.53652716	          0.00000000	          0.00000000	          0.00000000	          0.73490741	          0.00000000	         -0.22249451	         13.82539084	        691.87137285	         11.67685110	          0.23316252	          0.00000000	         -0.32324847	          0.00000000	          0.00000000	          0.00000000	          0.00000000	         -7.02151514	          0.00000000	          0.27678886	          0.77213067	         -0.28109467	          0.25896683	          0.77465433	         -0.20162542	          0.25757000	          0.77502024	         -0.35724783	          0.46281725	          0.42507520	         -0.18729675	          0.21474086	          0.42142409	         -0.32865706	          0.40803900	          0.08060657	         -0.20206116	          0.14131601	          0.06180870	         -0.30563128	          0.38543552	          0.84805465	         -0.28040588	          0.38652915	          0.84776813	         -0.15856043	          0.38434187	          0.84834111	         -0.40225133	          0.14613745	          0.91458267	         -0.24390775	          0.14251915	          0.91704655	         -0.29865897	          0.46627343	          0.43001083	         -0.11605109	          0.21007945	          0.41623500	         -0.39981601	          0.47614345	          0.42379194	         -0.26133507	          0.21213937	          0.41082802	         -0.24334750	          0.39238575	          0.08158877	         -0.16690066	          0.12495840	          0.06284741	         -0.34157014	          0.42666921	          0.08393648	         -0.23473017	          0.13936745	          0.07990068	         -0.26472104	          0.18718426	          1.34320664	         -0.28887272	          0.31592306	          1.27973890	         -0.24632408	          0.31885478	          1.27956426	         -0.32964280	          0.30085769	          1.27342737	         -0.30026484	          0.35477370	          1.20145881	         -0.29747787	          0.52755952	          0.64349419	         -0.12198666	          0.41530177	          0.56790614	         -0.35661119	          0.48482767	          0.64206702	         -0.14081974	          0.36799538	          0.58874625	         -0.36396739	          0.50666910	          0.56808686	         -0.14726594	          0.34250650	          0.52259248	         -0.35459864	          0.50512630	          0.21144740	         -0.15520218	          0.14048232	          0.16138196	         -0.41510019	          0.46621343	          0.21979630	         -0.17670186	          0.14381722	          0.17628133	         -0.36892962	          0.50300997	          0.06119290	         -0.18429112	          0.23953444	          0.04534582	         -0.32301530	
          0.37500003	          0.39655775	          0.84602034	         -0.28056508	         -3.83662987	         -0.15393963	          0.90093964	         34.35824966	         -2.23450136	          4.06203699	        -35.87564468	          3.47540545	          0.00000000	          0.00000000	         -4.05124807	          4.57001114	         -2.13403702	         -4.33519030	          7.68652630	          0.00000000	          0.00000000	         -6.36103106	          1.10280752	         -3.64936805	          0.00000000	          0.00000000	          0.00000000	          0.73681085	          0.00000000	         -0.22220271	         20.04503602	        716.65972428	         12.03784055	          0.23642363	          0.00000000	         -0.32237811	          0.00000000	          0.00000000	          0.00000000	          0.00000000	         -7.57994824	          0.00000000	          0.28773895	          0.77034646	         -0.28046873	          0.27045593	          0.77298254	         -0.20086503	          0.26798764	          0.77324814	         -0.35647434	          0.47587642	          0.42488033	         -0.18894935	          0.21962120	          0.42088923	         -0.32787523	          0.44173828	          0.07728797	         -0.20135130	          0.14194873	          0.06227020	         -0.30524078	          0.39655775	          0.84602034	         -0.28056508	          0.39849597	          0.84581178	         -0.15837291	          0.39461952	          0.84622890	         -0.40275723	          0.15743688	          0.91319358	         -0.24244872	          0.15348087	          0.91568822	         -0.29720175	          0.47995731	          0.42972639	         -0.11773058	          0.21507330	          0.41573709	         -0.39904419	          0.48969010	          0.42299446	         -0.26414683	          0.21555920	          0.41330394	         -0.24100313	          0.42606774	          0.07757234	         -0.16618595	          0.12546830	          0.06357546	         -0.34111479	          0.46031535	          0.08179566	         -0.23414740	          0.13943517	          0.08055367	         -0.26412925	          0.19828421	          1.34178901	         -0.28891566	          0.32601181	          1.27746296	         -0.24492705	          0.33022830	          1.27828789	         -0.32888472	          0.31193110	          1.27170670	         -0.30011678	          0.36540148	          1.19968081	         -0.29678312	          0.53965247	          0.64237064	         -0.12428796	          0.42251804	          0.56506139	         -0.35540876	          0.49803817	          0.64103526	         -0.14346243	          0.37620538	          0.58656514	         -0.36251584	          0.51939809	          0.56721085	         -0.14957438	          0.34877601	          0.52079636	         -0.35278401	          0.53097856	          0.21414697	         -0.15538916	          0.14189389	          0.16211891	         -0.41465947	          0.49224946	          0.22001663	         -0.17653336	          0.14480300	          0.17691258	         -0.36831012	          0.53774166	          0.06292783	         -0.18375196	          0.23966897	          0.04541394	         -0.32283381	
